<svg width="21" height="24" viewBox="0 0 21 24" fill="none" xmlns="http://www.w3.org/2000/svg">
<path d="M9.8048 11.4617L0.0895996 22.0059C0.0905096 22.0078 0.0905102 22.0106 0.0914202 22.0125C0.38981 23.1574 1.41179 24 2.6254 24C3.1108 24 3.5662 23.8656 3.9567 23.6305L3.9877 23.6118L14.9229 17.1593L9.8048 11.4617Z" fill="#EA4335"/>
<path d="M19.6331 9.6662L19.624 9.6597L14.9028 6.8612L9.58392 11.7013L14.9219 17.1582L19.6176 14.3878C20.4406 13.9324 21 13.045 21 12.0223C21 11.0052 20.4489 10.1225 19.6331 9.6662Z" fill="#FBBC04"/>
<path d="M0.0894203 1.99331C0.0310203 2.2135 0 2.4449 0 2.6838V21.3163C0 21.5552 0.0310197 21.7866 0.0903397 22.0059L10.1386 11.7313L0.0894203 1.99331Z" fill="#4285F4"/>
<path d="M9.87657 11.9999L14.9044 6.8594L3.98187 0.38351C3.58497 0.13996 3.12137 0 2.62597 0C1.41234 0 0.388534 0.84447 0.0901537 1.99034L0.0892334 1.99314L9.87657 11.9999Z" fill="#34A853"/>
</svg>
