<svg width="20" height="24" viewBox="0 0 20 24" fill="none" xmlns="http://www.w3.org/2000/svg">
<path d="M16.7045 12.7631C16.7166 11.8432 16.9669 10.9413 17.4321 10.1412C17.8972 9.3411 18.5621 8.6688 19.3648 8.187C18.8548 7.476 18.1821 6.8908 17.4 6.478C16.6178 6.0652 15.7479 5.8361 14.8592 5.809C12.9635 5.6147 11.1258 6.9164 10.1598 6.9164C9.1751 6.9164 7.6878 5.8283 6.0862 5.8604C5.0502 5.8931 4.0406 6.1872 3.1557 6.7141C2.2708 7.241 1.54075 7.9827 1.03674 8.8669C-1.14648 12.5573 0.482005 17.9809 2.5734 20.964C3.6197 22.4247 4.8426 24.0564 6.4428 23.9985C8.0086 23.9351 8.5934 23.0237 10.4835 23.0237C12.3561 23.0237 12.9048 23.9985 14.5374 23.9617C16.2176 23.9351 17.2762 22.4945 18.2859 21.02C19.0377 19.9792 19.6162 18.8288 20 17.6116C19.0238 17.2085 18.1908 16.5338 17.6048 15.6716C17.0187 14.8094 16.7056 13.7979 16.7045 12.7631Z" fill="black"/>
<path d="M13.6208 3.8471C14.5369 2.7734 14.9883 1.39335 14.879 0C13.4794 0.14352 12.1865 0.7966 11.258 1.82911C10.804 2.3335 10.4563 2.9203 10.2348 3.556C10.0132 4.1917 9.92218 4.8638 9.96688 5.5338C10.6669 5.5408 11.3595 5.3927 11.9924 5.1005C12.6254 4.8084 13.1821 4.3798 13.6208 3.8471Z" fill="black"/>
</svg>
